{
	"asset": {
		"generator": "Tilt Brush 16.2.4fe99fc",
		"version": "1.1",
		"copyright": "Unknown."
	},
	"buffers": {
		"sketch": {
			"byteLength": 2444272,
			"type": "arraybuffer",
			"uri": "sketch.bin"
		}
	},
	"accessors": {
		"accessor_position_DuctTape_d0262945-853c-4481-9cbd-88586bed93cb_0_0": {
			"bufferView": "vec3BufferView",
			"byteOffset": 0,
			"byteStride": 12,
			"componentType": 5126,
			"count": 7156,
			"max": [ 0.6101474, 2.105307, 0.4280555 ],
			"min": [ -1.473714, 1.126033, 0.08537594 ],
			"type": "VEC3"
		 },
		"accessor_normal_DuctTape_d0262945-853c-4481-9cbd-88586bed93cb_0_0": {
			"bufferView": "vec3BufferView",
			"byteOffset": 85872,
			"byteStride": 12,
			"componentType": 5126,
			"count": 7156,
			"max": [ 0.9922797, 0.8112571, 0.9985265 ],
			"min": [ -0.9770181, -0.9975905, -0.9995546 ],
			"type": "VEC3"
		 },
		"accessor_color_DuctTape_d0262945-853c-4481-9cbd-88586bed93cb_0_0": {
			"bufferView": "vec4BufferView",
			"byteOffset": 0,
			"byteStride": 16,
			"componentType": 5126,
			"count": 7156,
			"max": [ 0.6588235, 0.07058824, 0.1686275, 1 ],
			"min": [ 0.6588235, 0.07058824, 0.1686275, 0 ],
			"type": "VEC4"
		 },
		"accessor_tangent_DuctTape_d0262945-853c-4481-9cbd-88586bed93cb_0_0": {
			"bufferView": "vec4BufferView",
			"byteOffset": 114496,
			"byteStride": 16,
			"componentType": 5126,
			"count": 7156,
			"max": [ 0.9998732, 0.9650844, 0.9976379, 1 ],
			"min": [ -0.9982266, -0.9904774, -0.9980879, 1 ],
			"type": "VEC4"
		 },
		"accessor_uv0_DuctTape_d0262945-853c-4481-9cbd-88586bed93cb_0_0": {
			"bufferView": "vec2BufferView",
			"byteOffset": 0,
			"byteStride": 8,
			"componentType": 5126,
			"count": 7156,
			"max": [ 44.83957, 1 ],
			"min": [ 0.004077036, 0 ],
			"type": "VEC2"
		 },
		"accessor_indices_0_DuctTape_d0262945-853c-4481-9cbd-88586bed93cb_0_0": {
			"bufferView": "ushortBufferView",
			"byteOffset": 0,
			"byteStride": 0,
			"componentType": 5123,
			"count": 20580,
			"max": [ 7155 ],
			"min": [ 0 ],
			"type": "SCALAR"
		 },
		"accessor_position_Bubbles_89d104cd-d012-426b-b5b3-bbaee63ac43c_0_0": {
			"bufferView": "vec3BufferView",
			"byteOffset": 171744,
			"byteStride": 12,
			"componentType": 5126,
			"count": 2232,
			"max": [ 0.5510757, 2.098909, 0.4594344 ],
			"min": [ -1.386269, 1.174618, -0.5194451 ],
			"type": "VEC3"
		 },
		"accessor_normal_Bubbles_89d104cd-d012-426b-b5b3-bbaee63ac43c_0_0": {
			"bufferView": "vec3BufferView",
			"byteOffset": 198528,
			"byteStride": 12,
			"componentType": 5126,
			"count": 2232,
			"max": [ 0.5439701, 2.091008, 0.4543916 ],
			"min": [ -1.379832, 1.181185, -0.513719 ],
			"type": "VEC3"
		 },
		"accessor_color_Bubbles_89d104cd-d012-426b-b5b3-bbaee63ac43c_0_0": {
			"bufferView": "vec4BufferView",
			"byteOffset": 228992,
			"byteStride": 16,
			"componentType": 5126,
			"count": 2232,
			"max": [ 0.8941177, 0.9294118, 0.08627451, 0.9960784 ],
			"min": [ 0.8823529, 0.7215686, 0.07843138, 0 ],
			"type": "VEC4"
		 },
		"accessor_vertexId_Bubbles_89d104cd-d012-426b-b5b3-bbaee63ac43c_0_0": {
			"bufferView": "floatBufferView",
			"byteOffset": 0,
			"byteStride": 0,
			"componentType": 5126,
			"count": 2232,
			"max": [ 2231 ],
			"min": [ 0 ],
			"type": "SCALAR"
		 },
		"accessor_uv0_Bubbles_89d104cd-d012-426b-b5b3-bbaee63ac43c_0_0": {
			"bufferView": "vec4BufferView",
			"byteOffset": 264704,
			"byteStride": 16,
			"componentType": 5126,
			"count": 2232,
			"max": [ 1, 1, 0, 802.3996 ],
			"min": [ 0, 0, 0, 573.2651 ],
			"type": "VEC4"
		 },
		"accessor_uv1_Bubbles_89d104cd-d012-426b-b5b3-bbaee63ac43c_0_0": {
			"bufferView": "vec4BufferView",
			"byteOffset": 300416,
			"byteStride": 16,
			"componentType": 5126,
			"count": 2232,
			"max": [ 0.463834, 2.025967, 0.3657903, 2231 ],
			"min": [ -1.346864, 1.220788, -0.4397404, 0 ],
			"type": "VEC4"
		 },
		"accessor_indices_0_Bubbles_89d104cd-d012-426b-b5b3-bbaee63ac43c_0_0": {
			"bufferView": "ushortBufferView",
			"byteOffset": 41160,
			"byteStride": 0,
			"componentType": 5123,
			"count": 3348,
			"max": [ 2231 ],
			"min": [ 0 ],
			"type": "SCALAR"
		 },
		"accessor_position_NeonPulse_b2ffef01-eaaa-4ab5-aa64-95a2c4f5dbc6_0_0": {
			"bufferView": "vec3BufferView",
			"byteOffset": 225312,
			"byteStride": 12,
			"componentType": 5126,
			"count": 23895,
			"max": [ 0.7051437, 2.141515, 0.398441 ],
			"min": [ -1.806813, 1.080179, -0.2809067 ],
			"type": "VEC3"
		 },
		"accessor_normal_NeonPulse_b2ffef01-eaaa-4ab5-aa64-95a2c4f5dbc6_0_0": {
			"bufferView": "vec3BufferView",
			"byteOffset": 512052,
			"byteStride": 12,
			"componentType": 5126,
			"count": 23895,
			"max": [ 0.9998817, 0.9999628, 0.9994922 ],
			"min": [ -0.9998817, -0.9999628, -0.9994922 ],
			"type": "VEC3"
		 },
		"accessor_color_NeonPulse_b2ffef01-eaaa-4ab5-aa64-95a2c4f5dbc6_0_0": {
			"bufferView": "vec4BufferView",
			"byteOffset": 336128,
			"byteStride": 16,
			"componentType": 5126,
			"count": 23895,
			"max": [ 0.9960784, 0.9921569, 0.972549, 1 ],
			"min": [ 0.8823529, 0.7215686, 0.07843138, 1 ],
			"type": "VEC4"
		 },
		"accessor_tangent_NeonPulse_b2ffef01-eaaa-4ab5-aa64-95a2c4f5dbc6_0_0": {
			"bufferView": "vec4BufferView",
			"byteOffset": 718448,
			"byteStride": 16,
			"componentType": 5126,
			"count": 23895,
			"max": [ 0.9998817, 0.9997178, 0.9990503, 1 ],
			"min": [ -0.9981743, -0.9997178, -0.9990503, 1 ],
			"type": "VEC4"
		 },
		"accessor_uv0_NeonPulse_b2ffef01-eaaa-4ab5-aa64-95a2c4f5dbc6_0_0": {
			"bufferView": "vec2BufferView",
			"byteOffset": 57248,
			"byteStride": 8,
			"componentType": 5126,
			"count": 23895,
			"max": [ 1.091181, 1 ],
			"min": [ 0.004553439, 0 ],
			"type": "VEC2"
		 },
		"accessor_indices_0_NeonPulse_b2ffef01-eaaa-4ab5-aa64-95a2c4f5dbc6_0_0": {
			"bufferView": "ushortBufferView",
			"byteOffset": 47856,
			"byteStride": 0,
			"componentType": 5123,
			"count": 119760,
			"max": [ 23894 ],
			"min": [ 0 ],
			"type": "SCALAR"
		 }
	},
	"bufferViews": {
		"ushortBufferView": {
			"buffer": "sketch",
			"byteLength": 287376,
			"byteOffset": 0,
			"target": 34963
		},
		"floatBufferView": {
			"buffer": "sketch",
			"byteLength": 8928,
			"byteOffset": 287376,
			"target": 34962
		},
		"vec2BufferView": {
			"buffer": "sketch",
			"byteLength": 248408,
			"byteOffset": 296304,
			"target": 34962
		},
		"vec3BufferView": {
			"buffer": "sketch",
			"byteLength": 798792,
			"byteOffset": 544712,
			"target": 34962
		},
		"vec4BufferView": {
			"buffer": "sketch",
			"byteLength": 1100768,
			"byteOffset": 1343504,
			"target": 34962
		}
	},
	"meshes": {
		"mesh_DuctTape_d0262945-853c-4481-9cbd-88586bed93cb_0_0": {
			"name": "mesh_DuctTape_d0262945-853c-4481-9cbd-88586bed93cb_0_0",
			"primitives": [
				{
					"attributes": {
						"POSITION": "accessor_position_DuctTape_d0262945-853c-4481-9cbd-88586bed93cb_0_0",
						"NORMAL": "accessor_normal_DuctTape_d0262945-853c-4481-9cbd-88586bed93cb_0_0",
						"COLOR": "accessor_color_DuctTape_d0262945-853c-4481-9cbd-88586bed93cb_0_0",
						"TANGENT": "accessor_tangent_DuctTape_d0262945-853c-4481-9cbd-88586bed93cb_0_0",
						"TEXCOORD_0": "accessor_uv0_DuctTape_d0262945-853c-4481-9cbd-88586bed93cb_0_0"
					},
					"indices": "accessor_indices_0_DuctTape_d0262945-853c-4481-9cbd-88586bed93cb_0_0",
					"material": "material_d0262945-853c-4481-9cbd-88586bed93cb",
					"mode": 4
				}
			]
		},
		"mesh_Bubbles_89d104cd-d012-426b-b5b3-bbaee63ac43c_0_0": {
			"name": "mesh_Bubbles_89d104cd-d012-426b-b5b3-bbaee63ac43c_0_0",
			"primitives": [
				{
					"attributes": {
						"POSITION": "accessor_position_Bubbles_89d104cd-d012-426b-b5b3-bbaee63ac43c_0_0",
						"NORMAL": "accessor_normal_Bubbles_89d104cd-d012-426b-b5b3-bbaee63ac43c_0_0",
						"COLOR": "accessor_color_Bubbles_89d104cd-d012-426b-b5b3-bbaee63ac43c_0_0",
						"VERTEXID": "accessor_vertexId_Bubbles_89d104cd-d012-426b-b5b3-bbaee63ac43c_0_0",
						"TEXCOORD_0": "accessor_uv0_Bubbles_89d104cd-d012-426b-b5b3-bbaee63ac43c_0_0",
						"TEXCOORD_1": "accessor_uv1_Bubbles_89d104cd-d012-426b-b5b3-bbaee63ac43c_0_0"
					},
					"indices": "accessor_indices_0_Bubbles_89d104cd-d012-426b-b5b3-bbaee63ac43c_0_0",
					"material": "material_89d104cd-d012-426b-b5b3-bbaee63ac43c",
					"mode": 4
				}
			]
		},
		"mesh_NeonPulse_b2ffef01-eaaa-4ab5-aa64-95a2c4f5dbc6_0_0": {
			"name": "mesh_NeonPulse_b2ffef01-eaaa-4ab5-aa64-95a2c4f5dbc6_0_0",
			"primitives": [
				{
					"attributes": {
						"POSITION": "accessor_position_NeonPulse_b2ffef01-eaaa-4ab5-aa64-95a2c4f5dbc6_0_0",
						"NORMAL": "accessor_normal_NeonPulse_b2ffef01-eaaa-4ab5-aa64-95a2c4f5dbc6_0_0",
						"COLOR": "accessor_color_NeonPulse_b2ffef01-eaaa-4ab5-aa64-95a2c4f5dbc6_0_0",
						"TANGENT": "accessor_tangent_NeonPulse_b2ffef01-eaaa-4ab5-aa64-95a2c4f5dbc6_0_0",
						"TEXCOORD_0": "accessor_uv0_NeonPulse_b2ffef01-eaaa-4ab5-aa64-95a2c4f5dbc6_0_0"
					},
					"indices": "accessor_indices_0_NeonPulse_b2ffef01-eaaa-4ab5-aa64-95a2c4f5dbc6_0_0",
					"material": "material_b2ffef01-eaaa-4ab5-aa64-95a2c4f5dbc6",
					"mode": 4
				}
			]
		}
	},
	"shaders": {
		"vertex_d0262945-853c-4481-9cbd-88586bed93cb": {
			"type": 35633,
			"uri": "https://www.tiltbrush.com/shaders/brushes/DuctTape-d0262945-853c-4481-9cbd-88586bed93cb/DuctTape-d0262945-853c-4481-9cbd-88586bed93cb-v10.0-vertex.glsl"
		},
		"fragment_d0262945-853c-4481-9cbd-88586bed93cb": {
			"type": 35632,
			"uri": "https://www.tiltbrush.com/shaders/brushes/DuctTape-d0262945-853c-4481-9cbd-88586bed93cb/DuctTape-d0262945-853c-4481-9cbd-88586bed93cb-v10.0-fragment.glsl"
		},
		"vertex_89d104cd-d012-426b-b5b3-bbaee63ac43c": {
			"type": 35633,
			"uri": "https://www.tiltbrush.com/shaders/brushes/Bubbles-89d104cd-d012-426b-b5b3-bbaee63ac43c/Bubbles-89d104cd-d012-426b-b5b3-bbaee63ac43c-v10.0-vertex.glsl"
		},
		"fragment_89d104cd-d012-426b-b5b3-bbaee63ac43c": {
			"type": 35632,
			"uri": "https://www.tiltbrush.com/shaders/brushes/Bubbles-89d104cd-d012-426b-b5b3-bbaee63ac43c/Bubbles-89d104cd-d012-426b-b5b3-bbaee63ac43c-v10.0-fragment.glsl"
		},
		"vertex_b2ffef01-eaaa-4ab5-aa64-95a2c4f5dbc6": {
			"type": 35633,
			"uri": "https://www.tiltbrush.com/shaders/brushes/NeonPulse-b2ffef01-eaaa-4ab5-aa64-95a2c4f5dbc6/NeonPulse-b2ffef01-eaaa-4ab5-aa64-95a2c4f5dbc6-v10.0-vertex.glsl"
		},
		"fragment_b2ffef01-eaaa-4ab5-aa64-95a2c4f5dbc6": {
			"type": 35632,
			"uri": "https://www.tiltbrush.com/shaders/brushes/NeonPulse-b2ffef01-eaaa-4ab5-aa64-95a2c4f5dbc6/NeonPulse-b2ffef01-eaaa-4ab5-aa64-95a2c4f5dbc6-v10.0-fragment.glsl"
		}
	},
	"programs": {
		"program_d0262945-853c-4481-9cbd-88586bed93cb": {
			"attributes": [
				"a_position",
				"a_normal",
				"a_color",
				"a_tangent",
				"a_texcoord0"				
			],
			"vertexShader": "vertex_d0262945-853c-4481-9cbd-88586bed93cb",
			"fragmentShader": "fragment_d0262945-853c-4481-9cbd-88586bed93cb"
		},
		"program_89d104cd-d012-426b-b5b3-bbaee63ac43c": {
			"attributes": [
				"a_position",
				"a_normal",
				"a_color",
				"a_vertexId",
				"a_texcoord0",
				"a_texcoord1"				
			],
			"vertexShader": "vertex_89d104cd-d012-426b-b5b3-bbaee63ac43c",
			"fragmentShader": "fragment_89d104cd-d012-426b-b5b3-bbaee63ac43c"
		},
		"program_b2ffef01-eaaa-4ab5-aa64-95a2c4f5dbc6": {
			"attributes": [
				"a_position",
				"a_normal",
				"a_color",
				"a_tangent",
				"a_texcoord0"				
			],
			"vertexShader": "vertex_b2ffef01-eaaa-4ab5-aa64-95a2c4f5dbc6",
			"fragmentShader": "fragment_b2ffef01-eaaa-4ab5-aa64-95a2c4f5dbc6"
		}
	},
	"techniques": {
		"technique_d0262945-853c-4481-9cbd-88586bed93cb": {
			"program": "program_d0262945-853c-4481-9cbd-88586bed93cb",
			"parameters": {
				"position": {
					"type": 35665,
					"semantic": "POSITION"
				},
				"normal": {
					"type": 35665,
					"semantic": "NORMAL"
				},
				"color": {
					"type": 35666,
					"semantic": "COLOR"
				},
				"tangent": {
					"type": 35666,
					"semantic": "TANGENT"
				},
				"texcoord0": {
					"type": 35664,
					"semantic": "TEXCOORD_0"
				},
				"modelViewMatrix": {
					"type": 35676,
					"semantic": "MODELVIEW"
				},
				"projectionMatrix": {
					"type": 35676,
					"semantic": "PROJECTION"
				},
				"normalMatrix": {
					"type": 35675,
					"semantic": "MODELVIEWINVERSETRANSPOSE"
				},
				"SceneLight_0_matrix": {
					"type": 35676,
					"semantic": "MODELVIEW",
					"node": "node_SceneLight_0_-1038"
				},
				"SceneLight_0_color": {
					"type": 35666,
					"node": "node_SceneLight_0_-1038"
				},
				"SceneLight_1_matrix": {
					"type": 35676,
					"semantic": "MODELVIEW",
					"node": "node_SceneLight_1_-1044"
				},
				"SceneLight_1_color": {
					"type": 35666,
					"node": "node_SceneLight_1_-1044"
				},
				"ambient_light_color": {
					"type": 35666
				},
				"Shininess": {
					"type": 5126
				},
				"Cutoff": {
					"type": 5126
				},
				"Color": {
					"type": 35666
				},
				"SpecColor": {
					"type": 35666
				},
				"MainTex_TexelSize": {
					"type": 35666
				},
				"BumpMap_TexelSize": {
					"type": 35666
				},
				"MainTex": {
					"type": 35678
				},
				"BumpMap": {
					"type": 35678
				}				
			},
			"attributes": {
				"a_position": "position",
				"a_normal": "normal",
				"a_color": "color",
				"a_tangent": "tangent",
				"a_texcoord0": "texcoord0"				
			},
			"uniforms": {
				"u_modelViewMatrix": "modelViewMatrix",
				"u_projectionMatrix": "projectionMatrix",
				"u_normalMatrix": "normalMatrix",
				"u_SceneLight_0_matrix": "SceneLight_0_matrix",
				"u_SceneLight_0_color": "SceneLight_0_color",
				"u_SceneLight_1_matrix": "SceneLight_1_matrix",
				"u_SceneLight_1_color": "SceneLight_1_color",
				"u_ambient_light_color": "ambient_light_color",
				"u_Shininess": "Shininess",
				"u_Cutoff": "Cutoff",
				"u_Color": "Color",
				"u_SpecColor": "SpecColor",
				"u_MainTex_TexelSize": "MainTex_TexelSize",
				"u_BumpMap_TexelSize": "BumpMap_TexelSize",
				"u_MainTex": "MainTex",
				"u_BumpMap": "BumpMap"				
			},
			"states": {
				"enable": [
					2929
				],
				"functions": {
					"depthMask": [true]
				}
			}
		},
		"technique_89d104cd-d012-426b-b5b3-bbaee63ac43c": {
			"program": "program_89d104cd-d012-426b-b5b3-bbaee63ac43c",
			"parameters": {
				"position": {
					"type": 35665,
					"semantic": "POSITION"
				},
				"normal": {
					"type": 35665,
					"semantic": "NORMAL"
				},
				"color": {
					"type": 35666,
					"semantic": "COLOR"
				},
				"vertexId": {
					"type": 5126
				},
				"texcoord0": {
					"type": 35666,
					"semantic": "TEXCOORD_0"
				},
				"texcoord1": {
					"type": 35666,
					"semantic": "TEXCOORD_1"
				},
				"modelViewMatrix": {
					"type": 35676,
					"semantic": "MODELVIEW"
				},
				"projectionMatrix": {
					"type": 35676,
					"semantic": "PROJECTION"
				},
				"normalMatrix": {
					"type": 35675,
					"semantic": "MODELVIEWINVERSETRANSPOSE"
				},
				"SceneLight_0_matrix": {
					"type": 35676,
					"semantic": "MODELVIEW",
					"node": "node_SceneLight_0_-1038"
				},
				"SceneLight_0_color": {
					"type": 35666,
					"node": "node_SceneLight_0_-1038"
				},
				"SceneLight_1_matrix": {
					"type": 35676,
					"semantic": "MODELVIEW",
					"node": "node_SceneLight_1_-1044"
				},
				"SceneLight_1_color": {
					"type": 35666,
					"node": "node_SceneLight_1_-1044"
				},
				"ambient_light_color": {
					"type": 35666
				},
				"ScrollRate": {
					"type": 5126
				},
				"ScrollJitterIntensity": {
					"type": 5126
				},
				"ScrollJitterFrequency": {
					"type": 5126
				},
				"SpreadRate": {
					"type": 5126
				},
				"MainTex_TexelSize": {
					"type": 35666
				},
				"MainTex": {
					"type": 35678
				}				
			},
			"attributes": {
				"a_position": "position",
				"a_normal": "normal",
				"a_color": "color",
				"a_vertexId": "vertexId",
				"a_texcoord0": "texcoord0",
				"a_texcoord1": "texcoord1"				
			},
			"uniforms": {
				"u_modelViewMatrix": "modelViewMatrix",
				"u_projectionMatrix": "projectionMatrix",
				"u_normalMatrix": "normalMatrix",
				"u_SceneLight_0_matrix": "SceneLight_0_matrix",
				"u_SceneLight_0_color": "SceneLight_0_color",
				"u_SceneLight_1_matrix": "SceneLight_1_matrix",
				"u_SceneLight_1_color": "SceneLight_1_color",
				"u_ambient_light_color": "ambient_light_color",
				"u_ScrollRate": "ScrollRate",
				"u_ScrollJitterIntensity": "ScrollJitterIntensity",
				"u_ScrollJitterFrequency": "ScrollJitterFrequency",
				"u_SpreadRate": "SpreadRate",
				"u_MainTex_TexelSize": "MainTex_TexelSize",
				"u_MainTex": "MainTex"				
			},
			"states": {
				"enable": [
					2929,
					3042
				],
				"functions": {
					"blendFuncSeparate": [1, 1, 1, 1],
					"depthMask": [false]
				}
			}
		},
		"technique_b2ffef01-eaaa-4ab5-aa64-95a2c4f5dbc6": {
			"program": "program_b2ffef01-eaaa-4ab5-aa64-95a2c4f5dbc6",
			"parameters": {
				"position": {
					"type": 35665,
					"semantic": "POSITION"
				},
				"normal": {
					"type": 35665,
					"semantic": "NORMAL"
				},
				"color": {
					"type": 35666,
					"semantic": "COLOR"
				},
				"tangent": {
					"type": 35666,
					"semantic": "TANGENT"
				},
				"texcoord0": {
					"type": 35664,
					"semantic": "TEXCOORD_0"
				},
				"modelViewMatrix": {
					"type": 35676,
					"semantic": "MODELVIEW"
				},
				"projectionMatrix": {
					"type": 35676,
					"semantic": "PROJECTION"
				},
				"normalMatrix": {
					"type": 35675,
					"semantic": "MODELVIEWINVERSETRANSPOSE"
				},
				"SceneLight_0_matrix": {
					"type": 35676,
					"semantic": "MODELVIEW",
					"node": "node_SceneLight_0_-1038"
				},
				"SceneLight_0_color": {
					"type": 35666,
					"node": "node_SceneLight_0_-1038"
				},
				"SceneLight_1_matrix": {
					"type": 35676,
					"semantic": "MODELVIEW",
					"node": "node_SceneLight_1_-1044"
				},
				"SceneLight_1_color": {
					"type": 35666,
					"node": "node_SceneLight_1_-1044"
				},
				"ambient_light_color": {
					"type": 35666
				},
				"EmissionGain": {
					"type": 5126
				}				
			},
			"attributes": {
				"a_position": "position",
				"a_normal": "normal",
				"a_color": "color",
				"a_tangent": "tangent",
				"a_texcoord0": "texcoord0"				
			},
			"uniforms": {
				"u_modelViewMatrix": "modelViewMatrix",
				"u_projectionMatrix": "projectionMatrix",
				"u_normalMatrix": "normalMatrix",
				"u_SceneLight_0_matrix": "SceneLight_0_matrix",
				"u_SceneLight_0_color": "SceneLight_0_color",
				"u_SceneLight_1_matrix": "SceneLight_1_matrix",
				"u_SceneLight_1_color": "SceneLight_1_color",
				"u_ambient_light_color": "ambient_light_color",
				"u_EmissionGain": "EmissionGain"				
			},
			"states": {
				"enable": [
					2929,
					3042
				],
				"functions": {
					"blendFuncSeparate": [1, 1, 1, 1],
					"depthMask": [false]
				}
			}
		}
	},
	"samplers": {
		"sampler_LINEAR_LINEAR_REPEAT": {
			"magFilter": 9729,
			"minFilter": 9987,
			"wrapS": 10497,
			"wrapT": 10497
		}
	},
	"textures": {
		"texture_d0262945-853c-4481-9cbd-88586bed93cb_MainTex": {
			"format": 6408,
			"internalFormat": 6408,
			"sampler": "sampler_LINEAR_LINEAR_REPEAT",
			"source": "image_d0262945-853c-4481-9cbd-88586bed93cb_MainTex",
			"target": 3553,
			"type": 5121
		},
		"texture_d0262945-853c-4481-9cbd-88586bed93cb_BumpMap": {
			"format": 6408,
			"internalFormat": 6408,
			"sampler": "sampler_LINEAR_LINEAR_REPEAT",
			"source": "image_d0262945-853c-4481-9cbd-88586bed93cb_BumpMap",
			"target": 3553,
			"type": 5121
		},
		"texture_89d104cd-d012-426b-b5b3-bbaee63ac43c_MainTex": {
			"format": 6408,
			"internalFormat": 6408,
			"sampler": "sampler_LINEAR_LINEAR_REPEAT",
			"source": "image_89d104cd-d012-426b-b5b3-bbaee63ac43c_MainTex",
			"target": 3553,
			"type": 5121
		}
	},
	"images": {
		"image_d0262945-853c-4481-9cbd-88586bed93cb_MainTex": {
			"uri": "https://www.tiltbrush.com/shaders/brushes/DuctTape-d0262945-853c-4481-9cbd-88586bed93cb/DuctTape-d0262945-853c-4481-9cbd-88586bed93cb-v10.0-MainTex.png"
		},
		"image_d0262945-853c-4481-9cbd-88586bed93cb_BumpMap": {
			"uri": "https://www.tiltbrush.com/shaders/brushes/DuctTape-d0262945-853c-4481-9cbd-88586bed93cb/DuctTape-d0262945-853c-4481-9cbd-88586bed93cb-v10.0-BumpMap.png"
		},
		"image_89d104cd-d012-426b-b5b3-bbaee63ac43c_MainTex": {
			"uri": "https://www.tiltbrush.com/shaders/brushes/Bubbles-89d104cd-d012-426b-b5b3-bbaee63ac43c/Bubbles-89d104cd-d012-426b-b5b3-bbaee63ac43c-v10.0-MainTex.png"
		}
	},
	"materials": {
		"material_d0262945-853c-4481-9cbd-88586bed93cb": {
			"technique": "technique_d0262945-853c-4481-9cbd-88586bed93cb",
			"values": {
				"SceneLight_0_color": [1.023529, 0.7647059, 0.9294118, 1],
				"SceneLight_1_color": [0, 0, 0, 1],
				"ambient_light_color": [0.3019608, 0.3019608, 0.6039216, 1],
				"Shininess": 0.414,
				"Cutoff": 0.2,
				"Color": [0.7058824, 0.7058824, 0.7058824, 1],
				"SpecColor": [0.5372549, 0.5372549, 0.5372549, 1],
				"MainTex_TexelSize": [0.001953125, 0.00390625, 512, 256],
				"BumpMap_TexelSize": [0.001953125, 0.00390625, 512, 256],
				"MainTex": "texture_d0262945-853c-4481-9cbd-88586bed93cb_MainTex",
				"BumpMap": "texture_d0262945-853c-4481-9cbd-88586bed93cb_BumpMap"				
			},
			"name": "material_d0262945-853c-4481-9cbd-88586bed93cb"
		},
		"material_89d104cd-d012-426b-b5b3-bbaee63ac43c": {
			"technique": "technique_89d104cd-d012-426b-b5b3-bbaee63ac43c",
			"values": {
				"SceneLight_0_color": [1.023529, 0.7647059, 0.9294118, 1],
				"SceneLight_1_color": [0, 0, 0, 1],
				"ambient_light_color": [0.3019608, 0.3019608, 0.6039216, 1],
				"ScrollRate": 0.5,
				"ScrollJitterIntensity": 0.002,
				"ScrollJitterFrequency": 0.2,
				"SpreadRate": 1.539,
				"MainTex_TexelSize": [0.001953125, 0.001953125, 512, 512],
				"MainTex": "texture_89d104cd-d012-426b-b5b3-bbaee63ac43c_MainTex"				
			},
			"name": "material_89d104cd-d012-426b-b5b3-bbaee63ac43c"
		},
		"material_b2ffef01-eaaa-4ab5-aa64-95a2c4f5dbc6": {
			"technique": "technique_b2ffef01-eaaa-4ab5-aa64-95a2c4f5dbc6",
			"values": {
				"SceneLight_0_color": [1.023529, 0.7647059, 0.9294118, 1],
				"SceneLight_1_color": [0, 0, 0, 1],
				"ambient_light_color": [0.3019608, 0.3019608, 0.6039216, 1],
				"EmissionGain": 0.5				
			},
			"name": "material_b2ffef01-eaaa-4ab5-aa64-95a2c4f5dbc6"
		}
	},
	"nodes": {
		"node_DuctTape_d0262945-853c-4481-9cbd-88586bed93cb_0_0": {
			"name": "node_DuctTape_d0262945-853c-4481-9cbd-88586bed93cb_0_0",
			"meshes": [
				"mesh_DuctTape_d0262945-853c-4481-9cbd-88586bed93cb_0_0"
			],
			"matrix": [1, 0, 0, 0, 0, 1, 0, 0, 0, 0, 1, 0, 0, 0, 0, 1]
		},
		"node_SceneLight_0_-1038": {
			"name": "node_SceneLight_0_-1038",
			"light": "SceneLight_0",
			"matrix": [0.8987941, 0.1852636, -0.3972992, 0, -0.4383711, 0.3798467, -0.8145841, 0, 1.490116E-08, 0.9063078, 0.4226182, 0, -0.5674043, 0.05629165, -0.6461129, 1]
		},
		"node_SceneLight_1_-1044": {
			"name": "node_SceneLight_1_-1044",
			"light": "SceneLight_1",
			"matrix": [1, 0, 0, 0, 0, 1, 0, 0, 0, 0, 1, 0, -0.5674043, 0.0417812, -0.7284058, 1]
		},
		"node_Bubbles_89d104cd-d012-426b-b5b3-bbaee63ac43c_0_0": {
			"name": "node_Bubbles_89d104cd-d012-426b-b5b3-bbaee63ac43c_0_0",
			"meshes": [
				"mesh_Bubbles_89d104cd-d012-426b-b5b3-bbaee63ac43c_0_0"
			],
			"matrix": [1, 0, 0, 0, 0, 1, 0, 0, 0, 0, 1, 0, 0, 0, 0, 1]
		},
		"node_NeonPulse_b2ffef01-eaaa-4ab5-aa64-95a2c4f5dbc6_0_0": {
			"name": "node_NeonPulse_b2ffef01-eaaa-4ab5-aa64-95a2c4f5dbc6_0_0",
			"meshes": [
				"mesh_NeonPulse_b2ffef01-eaaa-4ab5-aa64-95a2c4f5dbc6_0_0"
			],
			"matrix": [1, 0, 0, 0, 0, 1, 0, 0, 0, 0, 1, 0, 0, 0, 0, 1]
		}
	},
	"scene": "defaultScene",
	"scenes": {
		"defaultScene": {
			"nodes": [
				"node_DuctTape_d0262945-853c-4481-9cbd-88586bed93cb_0_0",
				"node_SceneLight_0_-1038",
				"node_SceneLight_1_-1044",
				"node_Bubbles_89d104cd-d012-426b-b5b3-bbaee63ac43c_0_0",
				"node_NeonPulse_b2ffef01-eaaa-4ab5-aa64-95a2c4f5dbc6_0_0"
			],
			"extras": {
				"TB_EnvironmentGuid": "c504347a-c96d-4505-853b-87b484acff9a",
				"TB_Environment": "Night Sky",
				"TB_UseGradient": "false",
				"TB_SkyColorA": "0.08235294, 0.04705882, 0.1843137",
				"TB_SkyColorB": "0, 0, 0",
				"TB_SkyGradientDirection": "0, 1, 0",
				"TB_FogColor": "0.01960784, 0.01176471, 0.04313726",
				"TB_FogDensity": "0.006",
				"TB_SkyColorHorizon": "0.08235294, 0.04705882, 0.1843137",
				"TB_SkyColorZenith": "0, 0, 0"
			}
		}
	}
}